<?xml version="1.0" standalone="no"?>
<!DOCTYPE svg PUBLIC "-//W3C//DTD SVG 20010904//EN"
 "http://www.w3.org/TR/2001/REC-SVG-20010904/DTD/svg10.dtd">
<svg version="1.0" xmlns="http://www.w3.org/2000/svg"
 width="700.000000pt" height="700.000000pt" viewBox="0 0 700.000000 700.000000"
 preserveAspectRatio="xMidYMid meet">
<metadata>
Created by potrace 1.11, written by Peter Selinger 2001-2013
</metadata>
<g transform="translate(0.000000,700.000000) scale(0.100000,-0.100000)"
fill="#000000" stroke="none">
<path d="M3195 6985 c-16 -7 -64 -28 -105 -45 -180 -75 -410 -212 -590 -350
-114 -88 -342 -316 -425 -425 -286 -376 -467 -793 -580 -1336 -2 -9 -6 -34 -9
-55 -4 -22 -11 -64 -16 -94 -14 -83 -23 -154 -35 -270 -27 -267 -27 -792 0
-1055 3 -22 7 -67 10 -100 7 -91 44 -336 68 -464 l22 -114 250 -1 250 -1 1
-162 1 -163 -85 0 c-104 0 -150 -13 -201 -57 -100 -85 -84 -236 34 -318 17
-12 18 -17 7 -35 -23 -38 -54 -124 -68 -190 -14 -64 -19 -202 -9 -250 2 -13 7
-41 10 -61 7 -46 49 -168 76 -221 11 -21 18 -38 17 -39 -2 -1 -38 -2 -81 -4
-42 -2 -92 -8 -110 -14 -44 -15 -103 -74 -118 -119 -14 -41 -17 -450 -5 -516
13 -69 76 -130 150 -145 l31 -7 0 -184 0 -185 1551 -3 1550 -2 0 185 -1 186
52 23 c36 17 60 37 80 67 l28 42 3 251 c3 283 -2 318 -55 371 -37 37 -75 49
-161 49 -34 0 -51 4 -48 10 21 46 66 167 70 187 3 13 7 35 11 49 15 68 23 250
11 268 -2 4 -7 27 -11 51 -7 51 -48 164 -72 200 -15 23 -14 25 3 37 61 42 87
94 87 177 1 91 -35 151 -110 183 -18 8 -36 14 -40 13 -5 -1 -51 -1 -104 0
l-97 1 2 163 1 162 283 0 c155 0 282 1 282 2 0 9 -67 198 -84 238 -13 27 -31
70 -41 95 -32 75 -134 269 -192 365 -236 388 -583 768 -970 1062 -65 49 -151
111 -190 138 -40 26 -73 49 -73 50 0 2 211 3 469 3 l469 0 26 -47 c52 -95 156
-187 276 -244 112 -53 232 -71 356 -54 292 40 522 289 541 586 5 75 1 115 -21
220 -9 43 -63 148 -104 203 -47 63 -126 138 -185 174 -23 15 -44 30 -47 34 -9
13 -146 78 -250 120 -56 22 -125 52 -153 67 -142 71 -277 193 -364 328 -157
243 -245 347 -376 444 -81 61 -119 81 -207 111 -69 23 -149 29 -485 33 l-160
2 0 198 c0 108 -2 197 -5 197 -3 0 -18 -7 -35 -15z"/>
</g>
</svg>
